<?xml version="1.0" encoding="UTF-8"?>
		<svg xmlns="http://www.w3.org/2000/svg"  preserveAspectRatio="none" width="40" height="20">
			<style>
				* {
					vector-effect: non-scaling-stroke;
				}

				.sparkline {
					stroke-width: 2;
					fill: transparent;
					stroke: black;
				}

				.anomaly {
					stroke-dasharray: 4, 2;
					stroke-dashoffset: 1;
				}

			

			</style>

			<path class="sparkline-fill" style="fill:#e1e1e1;" d="M -2.857142857142857 5.037542898233774L 0 4.128525403978605L 2.857142857142857 2.6865308970686996L 5.714285714285714 2.8018516047323665L 8.571428571428571 2L 11.428571428571429 2.1954071776431476L 14.285714285714286 2.0548511375840413L 17.142857142857142 2.3390105031235855L 20 5.694322806778963L 22.857142857142858 6.586485003547361L 25.714285714285715 6.529100809956837L 28.571428571428573 7.327870501024442L 31.42857142857143 7.073917352223882L 34.285714285714285 7.198379916151563L 37.142857142857146 7.2522978225753185L 37.142857142857146 20 L -5.714285714285714 20"></path>
					<path class="sparkline" style="stroke:#555555;" d="M -2.857142857142857 5.037542898233774L 0 4.128525403978605L 2.857142857142857 2.6865308970686996L 5.714285714285714 2.8018516047323665L 8.571428571428571 2L 11.428571428571429 2.1954071776431476L 14.285714285714286 2.0548511375840413L 17.142857142857142 2.3390105031235855L 20 5.694322806778963L 22.857142857142858 6.586485003547361L 25.714285714285715 6.529100809956837L 28.571428571428573 7.327870501024442L 31.42857142857143 7.073917352223882L 34.285714285714285 7.198379916151563L 37.142857142857146 7.2522978225753185"></path>
				
				
		</svg>