<?xml version="1.0" encoding="UTF-8"?>
		<svg xmlns="http://www.w3.org/2000/svg"  preserveAspectRatio="none" width="40" height="20">
			<style>
				* {
					vector-effect: non-scaling-stroke;
				}

				.sparkline {
					stroke-width: 2;
					fill: transparent;
					stroke: black;
				}

				.anomaly {
					stroke-dasharray: 4, 2;
					stroke-dashoffset: 1;
				}

			

			</style>

			<path class="sparkline-fill" style="fill:#e1e1e1;" d="M -2.857142857142857 4.34058414899579L 0 4.1508236996103065L 2.857142857142857 3.9591278168050366L 5.714285714285714 3.7841470408070172L 8.571428571428571 3.6161162302709613L 11.428571428571429 3.500430096315508L 14.285714285714286 3.373747181565811L 17.142857142857142 3.282429913850404L 20 3.0991795586951127L 22.857142857142858 2.8946394359221657L 25.714285714285715 2.6909790556127575L 28.571428571428573 2.5228602708303463L 31.42857142857143 2.322806834621449L 34.285714285714285 2.159438659142154L 37.142857142857146 2L 37.142857142857146 20 L -5.714285714285714 20"></path>
					<path class="sparkline" style="stroke:#555555;" d="M -2.857142857142857 4.34058414899579L 0 4.1508236996103065L 2.857142857142857 3.9591278168050366L 5.714285714285714 3.7841470408070172L 8.571428571428571 3.6161162302709613L 11.428571428571429 3.500430096315508L 14.285714285714286 3.373747181565811L 17.142857142857142 3.282429913850404L 20 3.0991795586951127L 22.857142857142858 2.8946394359221657L 25.714285714285715 2.6909790556127575L 28.571428571428573 2.5228602708303463L 31.42857142857143 2.322806834621449L 34.285714285714285 2.159438659142154L 37.142857142857146 2"></path>
				
				
		</svg>